<svg xmlns="http://www.w3.org/2000/svg" viewBox="0 0 512 512"><path d="M511.894 19.228c-.031-.316-.09-.622-.135-.933-.054-.377-.098-.755-.172-1.13-.071-.358-.169-.705-.258-1.056-.081-.323-.152-.648-.249-.968-.104-.345-.234-.678-.355-1.015-.115-.319-.22-.641-.35-.956-.13-.315-.284-.616-.428-.923-.153-.324-.297-.651-.467-.969-.158-.294-.337-.574-.508-.86-.186-.311-.362-.626-.565-.93-.211-.316-.447-.613-.674-.917-.19-.253-.366-.513-.568-.76a21.46 21.46 0 00-1.402-1.551l-.011-.012-.011-.01a21.489 21.489 0 00-1.552-1.403c-.247-.203-.507-.379-.761-.569-.303-.227-.6-.462-.916-.673-.304-.203-.619-.379-.931-.565-.286-.171-.565-.35-.859-.508-.318-.17-.644-.314-.969-.467-.307-.145-.609-.298-.923-.429-.315-.13-.637-.236-.957-.35-.337-.121-.669-.25-1.013-.354-.32-.097-.646-.168-.969-.249-.351-.089-.698-.187-1.055-.258-.375-.074-.753-.119-1.13-.173-.311-.044-.617-.104-.933-.135A21.803 21.803 0 00490.667 0H341.333C329.551 0 320 9.551 320 21.333c0 11.782 9.551 21.333 21.333 21.333h97.83L283.582 198.248c-8.331 8.331-8.331 21.839 0 30.17s21.839 8.331 30.17 0L469.333 72.837v97.83c0 11.782 9.551 21.333 21.333 21.333S512 182.449 512 170.667V21.335c0-.704-.037-1.407-.106-2.107zM198.248 283.582L42.667 439.163v-97.83c0-11.782-9.551-21.333-21.333-21.333C9.551 320 0 329.551 0 341.333v149.333c0 .703.037 1.405.106 2.105.031.315.09.621.135.933.054.377.098.756.173 1.13.071.358.169.704.258 1.055.081.324.152.649.249.969.104.344.233.677.354 1.013.115.32.22.642.35.957.13.315.284.616.429.923.153.324.297.651.467.969.158.294.337.573.508.859.186.311.362.627.565.931.211.316.446.612.673.916.19.254.366.514.569.761.443.54.91 1.059 1.403 1.552l.01.011.012.011c.493.492 1.012.959 1.551 1.402.247.203.507.379.76.568.304.227.601.463.917.674.303.203.618.379.93.565.286.171.565.35.86.508.318.17.645.314.969.467.307.145.609.298.923.428.315.13.636.235.956.35.337.121.67.25 1.015.355.32.097.645.168.968.249.351.089.698.187 1.056.258.375.074.753.118 1.13.172.311.044.618.104.933.135.7.069 1.402.106 2.104.106h149.334c11.782 0 21.333-9.551 21.333-21.333s-9.551-21.333-21.333-21.333h-97.83L228.419 313.75c8.331-8.331 8.331-21.839 0-30.17s-21.839-8.329-30.171.002z"/></svg>